<mxfile host="app.diagrams.net" modified="2023-12-01T14:53:44.840Z" agent="Mozilla/5.0 (Windows NT 10.0; Win64; x64) AppleWebKit/537.36 (KHTML, like Gecko) Chrome/119.0.0.0 Safari/537.36" etag="XvufNDkfIYVM25v-hIa-" version="22.0.0" type="device">
  <diagram name="Página-1" id="cQgkTQZ_x8AtRi4298Tq">
    <mxGraphModel dx="928" dy="503" grid="1" gridSize="10" guides="1" tooltips="1" connect="1" arrows="1" fold="1" page="1" pageScale="1" pageWidth="827" pageHeight="1169" math="0" shadow="0">
      <root>
        <mxCell id="0" />
        <mxCell id="1" parent="0" />
        <mxCell id="fTDUZaXQxF7zkPqoiFzn-5" style="edgeStyle=orthogonalEdgeStyle;rounded=0;orthogonalLoop=1;jettySize=auto;html=1;entryX=1;entryY=0.5;entryDx=0;entryDy=0;fillColor=#f0a30a;strokeColor=#BD7000;strokeWidth=2;" edge="1" parent="1" source="fTDUZaXQxF7zkPqoiFzn-1" target="fTDUZaXQxF7zkPqoiFzn-2">
          <mxGeometry relative="1" as="geometry">
            <Array as="points">
              <mxPoint x="440" y="140" />
              <mxPoint x="440" y="260" />
            </Array>
          </mxGeometry>
        </mxCell>
        <mxCell id="fTDUZaXQxF7zkPqoiFzn-1" value="Agente RL&lt;br&gt;(Q Learning, DQN)" style="rounded=1;whiteSpace=wrap;html=1;strokeWidth=2;fontStyle=1" vertex="1" parent="1">
          <mxGeometry x="260" y="110" width="120" height="60" as="geometry" />
        </mxCell>
        <mxCell id="fTDUZaXQxF7zkPqoiFzn-3" style="edgeStyle=orthogonalEdgeStyle;rounded=0;orthogonalLoop=1;jettySize=auto;html=1;entryX=0;entryY=0.25;entryDx=0;entryDy=0;exitX=0.006;exitY=0.655;exitDx=0;exitDy=0;exitPerimeter=0;fillColor=#d80073;strokeColor=#A50040;strokeWidth=2;" edge="1" parent="1" source="fTDUZaXQxF7zkPqoiFzn-2" target="fTDUZaXQxF7zkPqoiFzn-1">
          <mxGeometry relative="1" as="geometry">
            <Array as="points">
              <mxPoint x="150" y="269" />
              <mxPoint x="150" y="125" />
            </Array>
          </mxGeometry>
        </mxCell>
        <mxCell id="fTDUZaXQxF7zkPqoiFzn-4" style="edgeStyle=orthogonalEdgeStyle;rounded=0;orthogonalLoop=1;jettySize=auto;html=1;entryX=-0.008;entryY=0.664;entryDx=0;entryDy=0;entryPerimeter=0;fillColor=#1ba1e2;strokeColor=#006EAF;strokeWidth=2;" edge="1" parent="1" target="fTDUZaXQxF7zkPqoiFzn-1">
          <mxGeometry relative="1" as="geometry">
            <mxPoint x="259" y="250" as="sourcePoint" />
            <Array as="points">
              <mxPoint x="170" y="250" />
              <mxPoint x="170" y="150" />
            </Array>
          </mxGeometry>
        </mxCell>
        <mxCell id="fTDUZaXQxF7zkPqoiFzn-2" value="Cadena de &lt;br&gt;suministro" style="rounded=1;whiteSpace=wrap;html=1;strokeWidth=2;fontStyle=1" vertex="1" parent="1">
          <mxGeometry x="260" y="230" width="120" height="60" as="geometry" />
        </mxCell>
        <mxCell id="fTDUZaXQxF7zkPqoiFzn-6" value="Recompensa/&lt;br&gt;Penalización" style="text;html=1;align=center;verticalAlign=middle;whiteSpace=wrap;rounded=0;fontColor=#006EAF;fontStyle=1" vertex="1" parent="1">
          <mxGeometry x="180" y="180" width="80" height="30" as="geometry" />
        </mxCell>
        <mxCell id="fTDUZaXQxF7zkPqoiFzn-7" value="Estado" style="text;html=1;align=center;verticalAlign=middle;whiteSpace=wrap;rounded=0;fontColor=#A50040;fontStyle=1" vertex="1" parent="1">
          <mxGeometry x="80" y="180" width="80" height="30" as="geometry" />
        </mxCell>
        <mxCell id="fTDUZaXQxF7zkPqoiFzn-8" value="Acción" style="text;html=1;align=center;verticalAlign=middle;whiteSpace=wrap;rounded=0;fontColor=#BD7000;fontStyle=1" vertex="1" parent="1">
          <mxGeometry x="374" y="180" width="80" height="30" as="geometry" />
        </mxCell>
        <mxCell id="fTDUZaXQxF7zkPqoiFzn-11" style="edgeStyle=orthogonalEdgeStyle;rounded=0;orthogonalLoop=1;jettySize=auto;html=1;entryX=1;entryY=0.5;entryDx=0;entryDy=0;fillColor=#f0a30a;strokeColor=#BD7000;strokeWidth=2;" edge="1" parent="1" source="fTDUZaXQxF7zkPqoiFzn-12" target="fTDUZaXQxF7zkPqoiFzn-15">
          <mxGeometry relative="1" as="geometry">
            <Array as="points">
              <mxPoint x="730" y="140" />
              <mxPoint x="730" y="260" />
            </Array>
          </mxGeometry>
        </mxCell>
        <mxCell id="fTDUZaXQxF7zkPqoiFzn-12" value="Políticas de manejos de inventarios" style="rounded=1;whiteSpace=wrap;html=1;strokeWidth=2;fontStyle=1" vertex="1" parent="1">
          <mxGeometry x="550" y="110" width="120" height="60" as="geometry" />
        </mxCell>
        <mxCell id="fTDUZaXQxF7zkPqoiFzn-13" style="edgeStyle=orthogonalEdgeStyle;rounded=0;orthogonalLoop=1;jettySize=auto;html=1;exitX=0;exitY=0.5;exitDx=0;exitDy=0;fillColor=#d80073;strokeColor=#A50040;strokeWidth=2;" edge="1" parent="1" source="fTDUZaXQxF7zkPqoiFzn-15">
          <mxGeometry relative="1" as="geometry">
            <Array as="points">
              <mxPoint x="480" y="260" />
              <mxPoint x="480" y="140" />
            </Array>
            <mxPoint x="550" y="140" as="targetPoint" />
          </mxGeometry>
        </mxCell>
        <mxCell id="fTDUZaXQxF7zkPqoiFzn-15" value="Cadena de&lt;br style=&quot;border-color: var(--border-color);&quot;&gt;suministro" style="rounded=1;whiteSpace=wrap;html=1;strokeWidth=2;fontStyle=1" vertex="1" parent="1">
          <mxGeometry x="550" y="230" width="120" height="60" as="geometry" />
        </mxCell>
        <mxCell id="fTDUZaXQxF7zkPqoiFzn-17" value="Estado" style="text;html=1;align=center;verticalAlign=middle;whiteSpace=wrap;rounded=0;fontColor=#A50040;fontStyle=1" vertex="1" parent="1">
          <mxGeometry x="470" y="180" width="80" height="30" as="geometry" />
        </mxCell>
        <mxCell id="fTDUZaXQxF7zkPqoiFzn-18" value="Acción" style="text;html=1;align=center;verticalAlign=middle;whiteSpace=wrap;rounded=0;fontColor=#BD7000;fontStyle=1" vertex="1" parent="1">
          <mxGeometry x="664" y="180" width="80" height="30" as="geometry" />
        </mxCell>
      </root>
    </mxGraphModel>
  </diagram>
</mxfile>
